# xmcd CD database file
#
# Track frame offsets:
#	150
#	19017
#	43497
#	56337
#	79440
#	96345
#	112332
#	132975
#	148330
#
# Disc length: 2123 seconds
#
# Revision: 0
# Processed by: cddbd v1.4PL0 Copyright (c) Steve Scherf et al.
# Submitted via: CDex 1.50
#
DISCID=8b084909
DTITLE=Michael Martin Murphey - Best of Michael Martin Murphey
DYEAR=1983
DGENRE=Country
TTITLE0=Carolina in the Pines
TTITLE1=Geronimo's Cadillac
TTITLE2=What's Forever For
TTITLE3=Wildfire
TTITLE4=What She Wants
TTITLE5=Love Affairs
TTITLE6=Disenchanted
TTITLE7=Don't Count the Rainy Days
TTITLE8=Will It Be Love by Morning
EXTD=YEAR: 1983
EXTT0=
EXTT1=
EXTT2=
EXTT3=
EXTT4=
EXTT5=
EXTT6=
EXTT7=
EXTT8=
PLAYORDER=
